<?xml version="1.0" standalone="no"?>
<!DOCTYPE svg PUBLIC "-//W3C//DTD SVG 20010904//EN"
 "http://www.w3.org/TR/2001/REC-SVG-20010904/DTD/svg10.dtd">
<svg version="1.0" xmlns="http://www.w3.org/2000/svg"
 width="1920.000000pt" height="1080.000000pt" viewBox="0 0 1920.000000 1080.000000"
 preserveAspectRatio="xMidYMid meet">

<g transform="translate(0.000000,1080.000000) scale(0.100000,-0.100000)"
fill="#000000" stroke="none">
<path d="M817 10585 c-168 -46 -307 -179 -357 -343 -20 -64 -20 -104 -20
-4841 0 -4108 2 -4784 15 -4830 50 -189 213 -339 402 -370 50 -9 2351 -11
8788 -9 l8720 3 60 24 c158 64 269 179 315 329 20 64 20 104 20 4851 0 4730 0
4789 -20 4845 -51 148 -151 259 -286 317 l-79 34 -8755 2 c-7236 1 -8763 -1
-8803 -12z m16953 -5190 l0 -4205 -8165 0 -8165 0 0 4205 0 4205 8165 0 8165
0 0 -4205z"/>
<path d="M2500 5349 l0 -1870 1198 4 c1287 4 1289 4 1539 58 432 93 730 297
860 588 86 193 101 448 38 664 -55 190 -165 342 -346 477 -68 50 -252 150
-278 150 -28 0 -17 22 21 41 124 63 276 206 348 328 164 277 158 651 -16 912
-24 37 -82 103 -129 147 -190 180 -437 284 -800 337 -188 27 -488 34 -1477 35
l-958 0 0 -1871z m2055 952 c78 -31 146 -99 165 -164 31 -113 -11 -234 -101
-290 -92 -56 -121 -60 -521 -64 l-368 -5 0 277 0 276 383 -3 c374 -3 383 -4
442 -27z m40 -1361 c67 -8 109 -19 161 -44 105 -50 147 -119 147 -241 -1 -108
-36 -174 -126 -231 -85 -55 -124 -59 -602 -59 l-440 0 -3 280 c-1 154 0 285 3
292 6 16 722 18 860 3z"/>
<path d="M6457 7213 c-4 -3 -7 -845 -7 -1870 l0 -1863 1555 0 1555 0 0 475 0
475 -935 0 -935 0 0 245 0 245 790 0 790 0 0 455 0 455 -790 0 -790 0 0 215 0
215 898 2 897 3 0 475 0 475 -1511 3 c-831 1 -1514 -1 -1517 -5z"/>
<path d="M9597 7213 c-4 -3 -7 -224 -7 -490 l0 -483 550 0 550 0 0 -1380 0
-1380 630 0 630 0 0 1380 0 1380 545 0 545 0 -2 488 -3 487 -1716 3 c-943 1
-1719 -1 -1722 -5z"/>
<path d="M13430 5363 c-447 -1022 -814 -1864 -817 -1870 -4 -10 127 -13 634
-13 l640 0 124 323 125 322 711 3 711 2 38 -97 c20 -54 76 -199 124 -323 l87
-225 652 -3 c359 -1 650 1 648 5 -2 5 -368 841 -812 1858 -445 1018 -812 1856
-818 1863 -7 9 -144 12 -622 12 l-612 0 -813 -1857z m1601 139 l177 -457 -355
-3 c-196 -1 -358 0 -360 2 -3 2 75 211 173 465 98 253 180 458 183 455 3 -3
85 -211 182 -462z"/>
</g>
</svg>
