<svg zoomAndPan="magnify" width="540px" viewBox="0 0 540 599" version="1.1" style="width:540px;height:599px;background:#FFFFFF;" preserveAspectRatio="none" height="599px" xmlns:xlink="http://www.w3.org/1999/xlink" xmlns="http://www.w3.org/2000/svg"><defs></defs><g><g id="cluster_rx"><rect y="152" x="7" width="331" style="stroke:#181818;stroke-width:1.0;fill:none;" ry="2.5" rx="2.5" height="321"></rect><rect y="157" x="318" width="15" style="stroke:#181818;stroke-width:1.0;fill:none;" height="10"></rect><rect y="159" x="316" width="4" style="stroke:#181818;stroke-width:1.0;fill:none;" height="2"></rect><rect y="163" x="316" width="4" style="stroke:#181818;stroke-width:1.0;fill:none;" height="2"></rect><text y="178.5352" x="138.5" textLength="68" lengthAdjust="spacing" font-weight="bold" font-size="14" font-family="sans-serif" fill="#000000">EtendoRX</text></g><g id="cluster_classic"><rect y="7" x="211" width="323" style="stroke:#181818;stroke-width:1.0;fill:none;" ry="2.5" rx="2.5" height="113"></rect><rect y="12" x="514" width="15" style="stroke:#181818;stroke-width:1.0;fill:none;" height="10"></rect><rect y="14" x="512" width="4" style="stroke:#181818;stroke-width:1.0;fill:none;" height="2"></rect><rect y="18" x="512" width="4" style="stroke:#181818;stroke-width:1.0;fill:none;" height="2"></rect><text y="33.5352" x="322.5" textLength="100" lengthAdjust="spacing" font-weight="bold" font-size="14" font-family="sans-serif" fill="#000000">EtendoClassic</text></g><g id="elem_PG"><path style="stroke:#181818;stroke-width:0.5;" fill="#F1F1F1" d="M104,60.5 C104,50.5 144,50.5 144,50.5 C144,50.5 184,50.5 184,60.5 L184,85.9883 C184,95.9883 144,95.9883 144,95.9883 C144,95.9883 104,95.9883 104,85.9883 L104,60.5"></path><path style="stroke:#181818;stroke-width:0.5;" fill="none" d="M104,60.5 C104,70.5 144,70.5 144,70.5 C144,70.5 184,70.5 184,60.5"></path><text y="88.0352" x="114" textLength="60" lengthAdjust="spacing" font-size="14" font-family="sans-serif" fill="#000000">postgres</text></g><g id="elem_EDGE"><ellipse style="stroke:#181818;stroke-width:0.5;" ry="8" rx="8" fill="#F1F1F1" cy="428" cx="88"></ellipse><text y="458.5352" x="70" textLength="36" lengthAdjust="spacing" font-size="14" font-family="sans-serif" fill="#000000">EDGE</text></g><g id="elem_KF"><path style="stroke:#181818;stroke-width:0.5;" fill="#F1F1F1" d="M232.5,303 L279.5,303 C284.5,303 284.5,316.2441 284.5,316.2441 C284.5,316.2441 284.5,329.4883 279.5,329.4883 L232.5,329.4883 C227.5,329.4883 227.5,316.2441 227.5,316.2441 C227.5,316.2441 227.5,303 232.5,303"></path><path style="stroke:#181818;stroke-width:0.5;" fill="none" d="M279.5,303 C274.5,303 274.5,316.2441 274.5,316.2441 C274.5,329.4883 279.5,329.4883 279.5,329.4883"></path><text y="321.5352" x="232.5" textLength="37" lengthAdjust="spacing" font-size="14" font-family="sans-serif" fill="#000000">kafka</text></g><g id="elem_DAS"><polygon style="stroke:#181818;stroke-width:0.5;" points="138,197,148,187,206,187,206,223.4883,196,233.4883,138,233.4883,138,197" fill="#F1F1F1"></polygon><line y2="187" y1="197" x2="206" x1="196" style="stroke:#181818;stroke-width:0.5;"></line><line y2="197" y1="197" x2="196" x1="138" style="stroke:#181818;stroke-width:0.5;"></line><line y2="233.4883" y1="197" x2="196" x1="196" style="stroke:#181818;stroke-width:0.5;"></line><text y="220.5352" x="153" textLength="28" lengthAdjust="spacing" font-size="14" font-family="sans-serif" fill="#000000">DAS</text></g><g id="elem_AUTH"><polygon style="stroke:#181818;stroke-width:0.5;" points="23.5,197,33.5,187,102.5,187,102.5,223.4883,92.5,233.4883,23.5,233.4883,23.5,197" fill="#F1F1F1"></polygon><line y2="187" y1="197" x2="102.5" x1="92.5" style="stroke:#181818;stroke-width:0.5;"></line><line y2="197" y1="197" x2="92.5" x1="23.5" style="stroke:#181818;stroke-width:0.5;"></line><line y2="233.4883" y1="197" x2="92.5" x1="92.5" style="stroke:#181818;stroke-width:0.5;"></line><text y="220.5352" x="38.5" textLength="39" lengthAdjust="spacing" font-size="14" font-family="sans-serif" fill="#000000">AUTH</text></g><g id="elem_AP"><polygon style="stroke:#181818;stroke-width:0.5;" points="60,303,70,293,192,293,192,329.4883,182,339.4883,60,339.4883,60,303" fill="#F1F1F1"></polygon><line y2="293" y1="303" x2="192" x1="182" style="stroke:#181818;stroke-width:0.5;"></line><line y2="303" y1="303" x2="182" x1="60" style="stroke:#181818;stroke-width:0.5;"></line><line y2="339.4883" y1="303" x2="182" x1="182" style="stroke:#181818;stroke-width:0.5;"></line><text y="326.5352" x="75" textLength="92" lengthAdjust="spacing" font-size="14" font-family="sans-serif" fill="#000000">AsyncProcess</text></g><g id="elem_MS"><polygon style="stroke:#181818;stroke-width:0.5;" points="204.5,415,214.5,405,321.5,405,321.5,441.4883,311.5,451.4883,204.5,451.4883,204.5,415" fill="#F1F1F1"></polygon><line y2="405" y1="415" x2="321.5" x1="311.5" style="stroke:#181818;stroke-width:0.5;"></line><line y2="415" y1="415" x2="311.5" x1="204.5" style="stroke:#181818;stroke-width:0.5;"></line><line y2="451.4883" y1="415" x2="311.5" x1="311.5" style="stroke:#181818;stroke-width:0.5;"></line><text y="438.5352" x="219.5" textLength="77" lengthAdjust="spacing" font-size="14" font-family="sans-serif" fill="#000000">MobileSync</text></g><g id="elem_mobilesync"><rect y="50" x="254.5" width="117" style="stroke:#181818;stroke-width:0.5;" ry="2.5" rx="2.5" height="46.4883" fill="#F1F1F1"></rect><rect y="55" x="351.5" width="15" style="stroke:#181818;stroke-width:0.5;" height="10" fill="#F1F1F1"></rect><rect y="57" x="349.5" width="4" style="stroke:#181818;stroke-width:0.5;" height="2" fill="#F1F1F1"></rect><rect y="61" x="349.5" width="4" style="stroke:#181818;stroke-width:0.5;" height="2" fill="#F1F1F1"></rect><text y="83.5352" x="269.5" textLength="77" lengthAdjust="spacing" font-size="14" font-family="sans-serif" fill="#000000">mobilesync</text></g><g id="elem_WH"><rect y="50" x="406.5" width="103" style="stroke:#181818;stroke-width:0.5;" ry="2.5" rx="2.5" height="46.4883" fill="#F1F1F1"></rect><rect y="55" x="489.5" width="15" style="stroke:#181818;stroke-width:0.5;" height="10" fill="#F1F1F1"></rect><rect y="57" x="487.5" width="4" style="stroke:#181818;stroke-width:0.5;" height="2" fill="#F1F1F1"></rect><rect y="61" x="487.5" width="4" style="stroke:#181818;stroke-width:0.5;" height="2" fill="#F1F1F1"></rect><text y="83.5352" x="421.5" textLength="63" lengthAdjust="spacing" font-size="14" font-family="sans-serif" fill="#000000">webhook</text></g><g id="elem_App"><ellipse style="stroke:#181818;stroke-width:0.5;" ry="8" rx="8" fill="#F1F1F1" cy="525.5" cx="88"></ellipse><path style="stroke:#181818;stroke-width:0.5;" fill="none" d="M88,533.5 L88,560.5 M75,541.5 L101,541.5 M88,560.5 L75,575.5 M88,560.5 L101,575.5"></path><text y="590.5352" x="74" textLength="28" lengthAdjust="spacing" font-size="14" font-family="sans-serif" fill="#000000">App</text></g><g id="link_PG_DAS"><path style="stroke:#181818;stroke-width:1.0;" id="PG-backto-DAS" fill="none" d="M149.58,100.88 C154.81,126.11 162.54,163.38 167.42,186.92"></path><polygon style="stroke:#181818;stroke-width:1.0;" points="148.5,95.69,146.4073,105.314,149.5135,100.5862,154.2413,103.6924,148.5,95.69" fill="#181818"></polygon></g><g id="link_AUTH_DAS"><path style="stroke:#181818;stroke-width:1.0;" id="AUTH-to-DAS" fill="none" d="M102.6,210 C112.6,210 122.61,210 132.61,210"></path><polygon style="stroke:#181818;stroke-width:1.0;" points="137.84,210,128.84,206,132.84,210,128.84,214,137.84,210" fill="#181818"></polygon></g><g id="link_AUTH_EDGE"><path style="stroke:#181818;stroke-width:1.0;" id="AUTH-backto-EDGE" fill="none" d="M52.15,238.44 C43.32,264.53 33.59,304.76 42,339 C49.81,370.81 71.37,403.88 81.96,418.81"></path><polygon style="stroke:#181818;stroke-width:1.0;" points="53.9,233.41,47.1679,240.5988,52.2591,238.1331,54.7248,243.2243,53.9,233.41" fill="#181818"></polygon></g><g id="link_AP_EDGE"><path style="stroke:#181818;stroke-width:1.0;" id="AP-backto-EDGE" fill="none" d="M116.66,344.03 C108.18,368.58 96.2,403.27 90.81,418.86"></path><polygon style="stroke:#181818;stroke-width:1.0;" points="118.31,339.26,111.5779,346.4488,116.6691,343.9831,119.1348,349.0743,118.31,339.26" fill="#181818"></polygon></g><g id="link_EDGE_App"><path style="stroke:#181818;stroke-width:1.0;" id="EDGE-backto-App" fill="none" d="M88,442.64 C88,460.33 88,491.89 88,516.91"></path><polygon style="stroke:#181818;stroke-width:1.0;" points="88,437.2,84,446.2,88,442.2,92,446.2,88,437.2" fill="#181818"></polygon></g><g id="link_DAS_AP"><path style="stroke:#181818;stroke-width:1.0;" id="DAS-backto-AP" fill="none" d="M160.17,237.75 C152.59,254.89 142.87,276.85 135.74,292.98"></path><polygon style="stroke:#181818;stroke-width:1.0;" points="162.24,233.06,154.9333,239.664,160.212,237.6302,162.2457,242.9089,162.24,233.06" fill="#181818"></polygon></g><g id="link_AP_KF"><path style="stroke:#181818;stroke-width:1.0;" id="AP-to-KF" fill="none" d="M192.02,316 C201.95,316 211.88,316 221.81,316"></path><polygon style="stroke:#181818;stroke-width:1.0;" points="227.01,316,218.01,312,222.01,316,218.01,320,227.01,316" fill="#181818"></polygon></g><g id="link_KF_MS"><path style="stroke:#181818;stroke-width:1.0;" id="KF-backto-MS" fill="none" d="M257.1,334.24 C258.31,353.3 260.27,384.05 261.59,404.87"></path><polygon style="stroke:#181818;stroke-width:1.0;" points="256.78,329.19,253.3541,338.4238,257.0946,334.1801,261.3383,337.9205,256.78,329.19" fill="#181818"></polygon></g><g id="link_DAS_MS"><path style="stroke:#181818;stroke-width:1.0;" id="DAS-backto-MS" fill="none" d="M211.07,223.75 C241.89,236.11 282.79,258.18 302,293 C322.13,329.49 297.6,377.44 279.34,404.97"></path><polygon style="stroke:#181818;stroke-width:1.0;" points="206.21,221.85,213.1441,228.8441,210.8689,223.665,216.0481,221.3898,206.21,221.85" fill="#181818"></polygon></g><g id="link_WH_MS"><path style="stroke:#181818;stroke-width:1.0;" id="WH-backto-MS" fill="none" d="M443.88,100.56 C418.36,148.43 362.66,252.3 314,339 C301.38,361.48 286.57,386.94 276.17,404.67"></path><polygon style="stroke:#181818;stroke-width:1.0;" points="446.26,96.1,438.5075,102.1745,443.916,100.5165,445.5739,105.9249,446.26,96.1" fill="#181818"></polygon></g><g id="link_classic_PG"><path style="stroke:#181818;stroke-width:1.0;" id="classic-to-PG" fill="none" d="M210.9208,73 C210.8447,73 210.7685,73 210.6924,73 C210.5401,73 210.3879,73 210.2356,73 C209.9311,73 209.6265,73 209.322,73 C208.713,73 208.1039,73 207.4949,73 C206.277,73 205.0591,73 203.8413,73 C198.97,73 194.1,73 189.23,73"></path><polygon style="stroke:#181818;stroke-width:1.0;" points="184.14,73,193.14,77,189.14,73,193.14,69,184.14,73" fill="#181818"></polygon></g></g></svg>