<svg zoomAndPan="magnify" width="926px" viewBox="0 0 926 675" version="1.1" style="width:926px;height:675px;background:#FFFFFF;" preserveAspectRatio="none" height="675px" xmlns:xlink="http://www.w3.org/1999/xlink" xmlns="http://www.w3.org/2000/svg"><defs></defs><g><rect y="224.4199" x="214.5" width="10" style="stroke:#181818;stroke-width:1.0;" height="127.5527" fill="#FFFFFF"></rect><rect y="536.1807" x="214.5" width="10" style="stroke:#181818;stroke-width:1.0;" height="39.9658" fill="#FFFFFF"></rect><rect y="224.4199" x="386.5" width="10" style="stroke:#181818;stroke-width:1.0;" height="127.5527" fill="#FFFFFF"></rect><rect y="418.5938" x="386.5" width="10" style="stroke:#181818;stroke-width:1.0;" height="34.3105" fill="#FFFFFF"></rect><rect y="536.1807" x="386.5" width="10" style="stroke:#181818;stroke-width:1.0;" height="39.9658" fill="#FFFFFF"></rect><rect y="159.1094" x="560.5" width="10" style="stroke:#181818;stroke-width:1.0;" height="30" fill="#FFFFFF"></rect><rect y="381.2832" x="560.5" width="10" style="stroke:#181818;stroke-width:1.0;" height="71.6211" fill="#FFFFFF"></rect><rect y="256.7305" x="730" width="10" style="stroke:#181818;stroke-width:1.0;" height="29.3105" fill="#FFFFFF"></rect><line y2="594.1465" y1="81.4883" x2="219" x1="219" style="stroke:#181818;stroke-width:0.5;stroke-dasharray:5.0,5.0;"></line><line y2="594.1465" y1="81.4883" x2="391.5" x1="391.5" style="stroke:#181818;stroke-width:0.5;stroke-dasharray:5.0,5.0;"></line><line y2="594.1465" y1="81.4883" x2="565.5" x1="565.5" style="stroke:#181818;stroke-width:0.5;stroke-dasharray:5.0,5.0;"></line><line y2="594.1465" y1="81.4883" x2="734.5" x1="734.5" style="stroke:#181818;stroke-width:0.5;stroke-dasharray:5.0,5.0;"></line><text y="78.5352" x="162" textLength="109" lengthAdjust="spacing" font-size="14" font-family="sans-serif" fill="#000000">ExternalProcess</text><ellipse style="stroke:#181818;stroke-width:0.5;" ry="8" rx="8" fill="#E2E2F0" cy="13.5" cx="219.5"></ellipse><path style="stroke:#181818;stroke-width:0.5;" fill="none" d="M219.5,21.5 L219.5,48.5 M206.5,29.5 L232.5,29.5 M219.5,48.5 L206.5,63.5 M219.5,48.5 L232.5,63.5"></path><text y="606.6816" x="162" textLength="109" lengthAdjust="spacing" font-size="14" font-family="sans-serif" fill="#000000">ExternalProcess</text><ellipse style="stroke:#181818;stroke-width:0.5;" ry="8" rx="8" fill="#E2E2F0" cy="618.1348" cx="219.5"></ellipse><path style="stroke:#181818;stroke-width:0.5;" fill="none" d="M219.5,626.1348 L219.5,653.1348 M206.5,634.1348 L232.5,634.1348 M219.5,653.1348 L206.5,668.1348 M219.5,653.1348 L232.5,668.1348"></path><rect y="50" x="338.5" width="106" style="stroke:#181818;stroke-width:0.5;" ry="2.5" rx="2.5" height="30.4883" fill="#E2E2F0"></rect><text y="70.5352" x="345.5" textLength="92" lengthAdjust="spacing" font-size="14" font-family="sans-serif" fill="#000000">AsyncProcess</text><rect y="593.1465" x="338.5" width="106" style="stroke:#181818;stroke-width:0.5;" ry="2.5" rx="2.5" height="30.4883" fill="#E2E2F0"></rect><text y="613.6816" x="345.5" textLength="92" lengthAdjust="spacing" font-size="14" font-family="sans-serif" fill="#000000">AsyncProcess</text><rect y="50" x="454.5" width="222" style="stroke:#181818;stroke-width:0.5;" ry="2.5" rx="2.5" height="30.4883" fill="#E2E2F0"></rect><text y="70.5352" x="461.5" textLength="208" lengthAdjust="spacing" font-size="14" font-family="sans-serif" fill="#000000">&lt;&lt;Process Implementation&gt;&gt;</text><rect y="593.1465" x="454.5" width="222" style="stroke:#181818;stroke-width:0.5;" ry="2.5" rx="2.5" height="30.4883" fill="#E2E2F0"></rect><text y="613.6816" x="461.5" textLength="208" lengthAdjust="spacing" font-size="14" font-family="sans-serif" fill="#000000">&lt;&lt;Process Implementation&gt;&gt;</text><rect y="50" x="686.5" width="97" style="stroke:#181818;stroke-width:0.5;" ry="2.5" rx="2.5" height="30.4883" fill="#E2E2F0"></rect><text y="70.5352" x="693.5" textLength="83" lengthAdjust="spacing" font-size="14" font-family="sans-serif" fill="#000000">MessageBus</text><rect y="593.1465" x="686.5" width="97" style="stroke:#181818;stroke-width:0.5;" ry="2.5" rx="2.5" height="30.4883" fill="#E2E2F0"></rect><text y="613.6816" x="693.5" textLength="83" lengthAdjust="spacing" font-size="14" font-family="sans-serif" fill="#000000">MessageBus</text><rect y="224.4199" x="214.5" width="10" style="stroke:#181818;stroke-width:1.0;" height="127.5527" fill="#FFFFFF"></rect><rect y="536.1807" x="214.5" width="10" style="stroke:#181818;stroke-width:1.0;" height="39.9658" fill="#FFFFFF"></rect><rect y="224.4199" x="386.5" width="10" style="stroke:#181818;stroke-width:1.0;" height="127.5527" fill="#FFFFFF"></rect><rect y="418.5938" x="386.5" width="10" style="stroke:#181818;stroke-width:1.0;" height="34.3105" fill="#FFFFFF"></rect><rect y="536.1807" x="386.5" width="10" style="stroke:#181818;stroke-width:1.0;" height="39.9658" fill="#FFFFFF"></rect><rect y="159.1094" x="560.5" width="10" style="stroke:#181818;stroke-width:1.0;" height="30" fill="#FFFFFF"></rect><rect y="381.2832" x="560.5" width="10" style="stroke:#181818;stroke-width:1.0;" height="71.6211" fill="#FFFFFF"></rect><rect y="256.7305" x="730" width="10" style="stroke:#181818;stroke-width:1.0;" height="29.3105" fill="#FFFFFF"></rect><rect y="112.1436" x="0" width="919" style="stroke:#EEEEEE;stroke-width:1.0;" height="3" fill="#EEEEEE"></rect><line y2="112.1436" y1="112.1436" x2="919" x1="0" style="stroke:#000000;stroke-width:1.0;"></line><line y2="115.1436" y1="115.1436" x2="919" x1="0" style="stroke:#000000;stroke-width:1.0;"></line><rect y="101.4883" x="425" width="69" style="stroke:#000000;stroke-width:2.0;" height="23.3105" fill="#EEEEEE"></rect><text y="118.0566" x="431" textLength="51" lengthAdjust="spacing" font-weight="bold" font-size="13" font-family="sans-serif" fill="#000000">Process</text><polygon style="stroke:#181818;stroke-width:1.0;" points="723,155.1094,733,159.1094,723,163.1094,727,159.1094" fill="#181818"></polygon><line y2="159.1094" y1="159.1094" x2="729" x1="570.5" style="stroke:#181818;stroke-width:1.0;"></line><text y="154.3672" x="577.5" textLength="61" lengthAdjust="spacing" font-size="13" font-family="sans-serif" fill="#000000">subscribe</text><path style="stroke:#181818;stroke-width:0.5;" fill="#FEFFDD" d="M740,139.7988 L740,164.7988 L909,164.7988 L909,149.7988 L899,139.7988 L740,139.7988"></path><path style="stroke:#181818;stroke-width:0.5;" fill="#FEFFDD" d="M899,139.7988 L899,149.7988 L909,149.7988 L899,139.7988"></path><text y="157.3672" x="746" textLength="148" lengthAdjust="spacing" font-size="13" font-family="sans-serif" fill="#000000">to {process name} topic</text><polygon style="stroke:#181818;stroke-width:1.0;" points="374.5,220.4199,384.5,224.4199,374.5,228.4199,378.5,224.4199" fill="#181818"></polygon><line y2="224.4199" y1="224.4199" x2="380.5" x1="224.5" style="stroke:#181818;stroke-width:1.0;"></line><text y="219.6777" x="231.5" textLength="148" lengthAdjust="spacing" font-size="13" font-family="sans-serif" fill="#000000">Start process execution</text><path style="stroke:#181818;stroke-width:0.5;" fill="#FEFFDD" d="M59,205.1094 L59,230.1094 L209,230.1094 L209,215.1094 L199,205.1094 L59,205.1094"></path><path style="stroke:#181818;stroke-width:0.5;" fill="#FEFFDD" d="M199,205.1094 L199,215.1094 L209,215.1094 L199,205.1094"></path><text y="222.6777" x="65" textLength="129" lengthAdjust="spacing" font-size="13" font-family="sans-serif" fill="#000000">Send {process name}</text><polygon style="stroke:#181818;stroke-width:1.0;" points="718,252.7305,728,256.7305,718,260.7305,722,256.7305" fill="#181818"></polygon><line y2="256.7305" y1="256.7305" x2="724" x1="396.5" style="stroke:#181818;stroke-width:1.0;"></line><text y="251.9883" x="403.5" textLength="40" lengthAdjust="spacing" font-size="13" font-family="sans-serif" fill="#000000">Queue</text><polygon style="stroke:#181818;stroke-width:1.0;" points="407.5,282.041,397.5,286.041,407.5,290.041,403.5,286.041" fill="#181818"></polygon><line y2="286.041" y1="286.041" x2="734" x1="401.5" style="stroke:#181818;stroke-width:1.0;"></line><text y="281.2988" x="413.5" textLength="18" lengthAdjust="spacing" font-size="13" font-family="sans-serif" fill="#000000">OK</text><polygon style="stroke:#181818;stroke-width:1.0;" points="230.5,347.9727,220.5,351.9727,230.5,355.9727,226.5,351.9727" fill="#181818"></polygon><line y2="351.9727" y1="351.9727" x2="390.5" x1="224.5" style="stroke:#181818;stroke-width:1.0;"></line><text y="347.2305" x="236.5" textLength="74" lengthAdjust="spacing" font-size="13" font-family="sans-serif" fill="#000000">[ACCEPTED]</text><path style="stroke:#181818;stroke-width:0.5;" fill="#FEFFDD" d="M5,314.3516 L5,339.3516 L210,339.3516 L210,324.3516 L200,314.3516 L5,314.3516"></path><path style="stroke:#181818;stroke-width:0.5;" fill="#FEFFDD" d="M200,314.3516 L200,324.3516 L210,324.3516 L200,314.3516"></path><text y="331.9199" x="11" textLength="184" lengthAdjust="spacing" font-size="13" font-family="sans-serif" fill="#000000">Response with {process uuid}</text><path style="stroke:#181818;stroke-width:0.5;" fill="#FEFFDD" d="M401,299.041 L401,354.041 L557,354.041 L557,309.041 L547,299.041 L401,299.041"></path><path style="stroke:#181818;stroke-width:0.5;" fill="#FEFFDD" d="M547,299.041 L547,309.041 L557,309.041 L547,299.041"></path><text y="316.6094" x="407" textLength="113" lengthAdjust="spacing" font-size="13" font-family="sans-serif" fill="#000000">queue message in</text><text y="331.9199" x="407" textLength="131" lengthAdjust="spacing" font-size="13" font-family="sans-serif" fill="#000000">{process name} topic</text><text y="347.2305" x="407" textLength="112" lengthAdjust="spacing" font-size="13" font-family="sans-serif" fill="#000000">including payload</text><polygon style="stroke:#181818;stroke-width:1.0;" points="581.5,377.2832,571.5,381.2832,581.5,385.2832,577.5,381.2832" fill="#181818"></polygon><line y2="381.2832" y1="381.2832" x2="734" x1="575.5" style="stroke:#181818;stroke-width:1.0;"></line><text y="376.541" x="587.5" textLength="108" lengthAdjust="spacing" font-size="13" font-family="sans-serif" fill="#000000">changes on topic</text><line y2="405.5938" y1="405.5938" x2="617.5" x1="570.5" style="stroke:#181818;stroke-width:1.0;"></line><line y2="418.5938" y1="405.5938" x2="617.5" x1="617.5" style="stroke:#181818;stroke-width:1.0;"></line><line y2="418.5938" y1="418.5938" x2="617.5" x1="576.5" style="stroke:#181818;stroke-width:1.0;"></line><polygon style="stroke:#181818;stroke-width:1.0;" points="586.5,414.5938,576.5,418.5938,586.5,422.5938,582.5,418.5938" fill="#181818"></polygon><text y="400.8516" x="582.5" textLength="102" lengthAdjust="spacing" font-size="13" font-family="sans-serif" fill="#000000">execute process</text><polygon style="stroke:#181818;stroke-width:1.0;" points="402.5,448.9043,392.5,452.9043,402.5,456.9043,398.5,452.9043" fill="#181818"></polygon><line y2="452.9043" y1="452.9043" x2="564.5" x1="396.5" style="stroke:#181818;stroke-width:1.0;stroke-dasharray:2.0,2.0;"></line><text y="448.1621" x="408.5" textLength="78" lengthAdjust="spacing" font-size="13" font-family="sans-serif" fill="#000000">process info</text><rect y="481.5596" x="0" width="919" style="stroke:#EEEEEE;stroke-width:1.0;" height="3" fill="#EEEEEE"></rect><line y2="481.5596" y1="481.5596" x2="919" x1="0" style="stroke:#000000;stroke-width:1.0;"></line><line y2="484.5596" y1="484.5596" x2="919" x1="0" style="stroke:#000000;stroke-width:1.0;"></line><rect y="470.9043" x="407.5" width="104" style="stroke:#000000;stroke-width:2.0;" height="23.3105" fill="#EEEEEE"></rect><text y="487.4727" x="413.5" textLength="86" lengthAdjust="spacing" font-weight="bold" font-size="13" font-family="sans-serif" fill="#000000">Check status</text><polygon style="stroke:#181818;stroke-width:1.0;" points="374.5,532.1807,384.5,536.1807,374.5,540.1807,378.5,536.1807" fill="#181818"></polygon><line y2="536.1807" y1="536.1807" x2="380.5" x1="224.5" style="stroke:#181818;stroke-width:1.0;"></line><text y="531.4385" x="231.5" textLength="125" lengthAdjust="spacing" font-size="13" font-family="sans-serif" fill="#000000">[GET] {process uuid}</text><path style="stroke:#181818;stroke-width:0.5;" fill="#FEFFDD" d="M48,509.2148 L48,549.2148 L209,549.2148 L209,519.2148 L199,509.2148 L48,509.2148"></path><path style="stroke:#181818;stroke-width:0.5;" fill="#FEFFDD" d="M199,509.2148 L199,519.2148 L209,519.2148 L199,509.2148"></path><text y="526.7832" x="54" textLength="140" lengthAdjust="spacing" font-size="13" font-family="sans-serif" fill="#000000">Get process execution</text><text y="542.0938" x="54" textLength="90" lengthAdjust="spacing" font-size="13" font-family="sans-serif" fill="#000000">status and log</text><polygon style="stroke:#181818;stroke-width:1.0;" points="230.5,572.1465,220.5,576.1465,230.5,580.1465,226.5,576.1465" fill="#181818"></polygon><line y2="576.1465" y1="576.1465" x2="390.5" x1="224.5" style="stroke:#181818;stroke-width:1.0;"></line><text y="571.4043" x="236.5" textLength="120" lengthAdjust="spacing" font-size="13" font-family="sans-serif" fill="#000000">Process status info</text></g></svg>