<svg zoomAndPan="magnify" width="679px" viewBox="0 0 679 664" version="1.1" style="width:679px;height:664px;background:#FFFFFF;" preserveAspectRatio="none" height="664px" xmlns:xlink="http://www.w3.org/1999/xlink" xmlns="http://www.w3.org/2000/svg"><defs></defs><g><rect y="171.4199" x="17" width="10" style="stroke:#181818;stroke-width:1.0;" height="117.2422" fill="#FFFFFF"></rect><rect y="171.4199" x="157" width="10" style="stroke:#181818;stroke-width:1.0;" height="117.2422" fill="#FFFFFF"></rect><rect y="317.9727" x="265.5" width="10" style="stroke:#181818;stroke-width:1.0;" height="130.2422" fill="#FFFFFF"></rect><rect y="477.5254" x="265.5" width="10" style="stroke:#181818;stroke-width:1.0;" height="87.9316" fill="#FFFFFF"></rect><rect y="200.7305" x="496.5" width="10" style="stroke:#181818;stroke-width:1.0;" height="58.6211" fill="#FFFFFF"></rect><rect y="506.8359" x="611.5" width="10" style="stroke:#181818;stroke-width:1.0;" height="29.3105" fill="#FFFFFF"></rect><line y2="583.457" y1="81.4883" x2="22" x1="22" style="stroke:#181818;stroke-width:0.5;stroke-dasharray:5.0,5.0;"></line><line y2="583.457" y1="81.4883" x2="162" x1="162" style="stroke:#181818;stroke-width:0.5;stroke-dasharray:5.0,5.0;"></line><line y2="583.457" y1="81.4883" x2="270" x1="270" style="stroke:#181818;stroke-width:0.5;stroke-dasharray:5.0,5.0;"></line><line y2="583.457" y1="81.4883" x2="501" x1="501" style="stroke:#181818;stroke-width:0.5;stroke-dasharray:5.0,5.0;"></line><line y2="583.457" y1="81.4883" x2="616" x1="616" style="stroke:#181818;stroke-width:0.5;stroke-dasharray:5.0,5.0;"></line><text y="78.5352" x="5" textLength="28" lengthAdjust="spacing" font-size="14" font-family="sans-serif" fill="#000000">App</text><ellipse style="stroke:#181818;stroke-width:0.5;" ry="8" rx="8" fill="#E2E2F0" cy="13.5" cx="22"></ellipse><path style="stroke:#181818;stroke-width:0.5;" fill="none" d="M22,21.5 L22,48.5 M9,29.5 L35,29.5 M22,48.5 L9,63.5 M22,48.5 L35,63.5"></path><text y="595.9922" x="5" textLength="28" lengthAdjust="spacing" font-size="14" font-family="sans-serif" fill="#000000">App</text><ellipse style="stroke:#181818;stroke-width:0.5;" ry="8" rx="8" fill="#E2E2F0" cy="607.4453" cx="22"></ellipse><path style="stroke:#181818;stroke-width:0.5;" fill="none" d="M22,615.4453 L22,642.4453 M9,623.4453 L35,623.4453 M22,642.4453 L9,657.4453 M22,642.4453 L35,657.4453"></path><rect y="50" x="109" width="106" style="stroke:#181818;stroke-width:0.5;" ry="2.5" rx="2.5" height="30.4883" fill="#E2E2F0"></rect><text y="70.5352" x="116" textLength="92" lengthAdjust="spacing" font-size="14" font-family="sans-serif" fill="#000000">AsyncProcess</text><rect y="582.457" x="109" width="106" style="stroke:#181818;stroke-width:0.5;" ry="2.5" rx="2.5" height="30.4883" fill="#E2E2F0"></rect><text y="602.9922" x="116" textLength="92" lengthAdjust="spacing" font-size="14" font-family="sans-serif" fill="#000000">AsyncProcess</text><rect y="50" x="225" width="91" style="stroke:#181818;stroke-width:0.5;" ry="2.5" rx="2.5" height="30.4883" fill="#E2E2F0"></rect><text y="70.5352" x="232" textLength="77" lengthAdjust="spacing" font-size="14" font-family="sans-serif" fill="#000000">MobileSync</text><rect y="582.457" x="225" width="91" style="stroke:#181818;stroke-width:0.5;" ry="2.5" rx="2.5" height="30.4883" fill="#E2E2F0"></rect><text y="602.9922" x="232" textLength="77" lengthAdjust="spacing" font-size="14" font-family="sans-serif" fill="#000000">MobileSync</text><rect y="50" x="453" width="97" style="stroke:#181818;stroke-width:0.5;" ry="2.5" rx="2.5" height="30.4883" fill="#E2E2F0"></rect><text y="70.5352" x="460" textLength="83" lengthAdjust="spacing" font-size="14" font-family="sans-serif" fill="#000000">MessageBus</text><rect y="582.457" x="453" width="97" style="stroke:#181818;stroke-width:0.5;" ry="2.5" rx="2.5" height="30.4883" fill="#E2E2F0"></rect><text y="602.9922" x="460" textLength="83" lengthAdjust="spacing" font-size="14" font-family="sans-serif" fill="#000000">MessageBus</text><rect y="50" x="560" width="113" style="stroke:#181818;stroke-width:0.5;" ry="2.5" rx="2.5" height="30.4883" fill="#E2E2F0"></rect><text y="70.5352" x="567" textLength="99" lengthAdjust="spacing" font-size="14" font-family="sans-serif" fill="#000000">Etendo Classic</text><rect y="582.457" x="560" width="113" style="stroke:#181818;stroke-width:0.5;" ry="2.5" rx="2.5" height="30.4883" fill="#E2E2F0"></rect><text y="602.9922" x="567" textLength="99" lengthAdjust="spacing" font-size="14" font-family="sans-serif" fill="#000000">Etendo Classic</text><rect y="171.4199" x="17" width="10" style="stroke:#181818;stroke-width:1.0;" height="117.2422" fill="#FFFFFF"></rect><rect y="171.4199" x="157" width="10" style="stroke:#181818;stroke-width:1.0;" height="117.2422" fill="#FFFFFF"></rect><rect y="317.9727" x="265.5" width="10" style="stroke:#181818;stroke-width:1.0;" height="130.2422" fill="#FFFFFF"></rect><rect y="477.5254" x="265.5" width="10" style="stroke:#181818;stroke-width:1.0;" height="87.9316" fill="#FFFFFF"></rect><rect y="200.7305" x="496.5" width="10" style="stroke:#181818;stroke-width:1.0;" height="58.6211" fill="#FFFFFF"></rect><rect y="506.8359" x="611.5" width="10" style="stroke:#181818;stroke-width:1.0;" height="29.3105" fill="#FFFFFF"></rect><polygon style="stroke:#181818;stroke-width:1.0;" points="489.5,108.7988,499.5,112.7988,489.5,116.7988,493.5,112.7988" fill="#181818"></polygon><line y2="112.7988" y1="112.7988" x2="495.5" x1="270.5" style="stroke:#181818;stroke-width:1.0;"></line><text y="108.0566" x="277.5" textLength="78" lengthAdjust="spacing" font-size="13" font-family="sans-serif" fill="#000000">subscribe to</text><text y="108.0566" x="359.5" textLength="72" lengthAdjust="spacing" font-style="italic" font-size="13" font-family="sans-serif" fill="#000000">mobilesync</text><text y="108.0566" x="435.5" textLength="49" lengthAdjust="spacing" font-size="13" font-family="sans-serif" fill="#000000">process</text><polygon style="stroke:#181818;stroke-width:1.0;" points="489.5,138.1094,499.5,142.1094,489.5,146.1094,493.5,142.1094" fill="#181818"></polygon><line y2="142.1094" y1="142.1094" x2="495.5" x1="270.5" style="stroke:#181818;stroke-width:1.0;"></line><text y="137.3672" x="277.5" textLength="78" lengthAdjust="spacing" font-size="13" font-family="sans-serif" fill="#000000">subscribe to</text><text y="137.3672" x="359.5" textLength="57" lengthAdjust="spacing" font-style="italic" font-size="13" font-family="sans-serif" fill="#000000">webhook</text><text y="137.3672" x="420.5" textLength="49" lengthAdjust="spacing" font-size="13" font-family="sans-serif" fill="#000000">process</text><polygon style="stroke:#181818;stroke-width:1.0;" points="145,167.4199,155,171.4199,145,175.4199,149,171.4199" fill="#181818"></polygon><line y2="171.4199" y1="171.4199" x2="151" x1="27" style="stroke:#181818;stroke-width:1.0;"></line><text y="166.6777" x="34" textLength="96" lengthAdjust="spacing" font-size="13" font-family="sans-serif" fill="#000000">POST sync data</text><polygon style="stroke:#181818;stroke-width:1.0;" points="484.5,196.7305,494.5,200.7305,484.5,204.7305,488.5,200.7305" fill="#181818"></polygon><line y2="200.7305" y1="200.7305" x2="490.5" x1="167" style="stroke:#181818;stroke-width:1.0;"></line><text y="195.9883" x="174" textLength="64" lengthAdjust="spacing" font-size="13" font-family="sans-serif" fill="#000000">publish to</text><text y="195.9883" x="242" textLength="72" lengthAdjust="spacing" font-style="italic" font-size="13" font-family="sans-serif" fill="#000000">mobilesync</text><text y="195.9883" x="318" textLength="32" lengthAdjust="spacing" font-size="13" font-family="sans-serif" fill="#000000">topic</text><polygon style="stroke:#181818;stroke-width:1.0;" points="484.5,226.041,494.5,230.041,484.5,234.041,488.5,230.041" fill="#181818"></polygon><line y2="230.041" y1="230.041" x2="490.5" x1="167" style="stroke:#181818;stroke-width:1.0;stroke-dasharray:2.0,2.0;"></line><text y="225.2988" x="174" textLength="75" lengthAdjust="spacing" font-size="13" font-family="sans-serif" fill="#000000">store status</text><polygon style="stroke:#181818;stroke-width:1.0;" points="178,255.3516,168,259.3516,178,263.3516,174,259.3516" fill="#181818"></polygon><line y2="259.3516" y1="259.3516" x2="500.5" x1="172" style="stroke:#181818;stroke-width:1.0;"></line><text y="254.6094" x="184" textLength="18" lengthAdjust="spacing" font-size="13" font-family="sans-serif" fill="#000000">OK</text><polygon style="stroke:#181818;stroke-width:1.0;" points="33,284.6621,23,288.6621,33,292.6621,29,288.6621" fill="#181818"></polygon><line y2="288.6621" y1="288.6621" x2="161" x1="27" style="stroke:#181818;stroke-width:1.0;"></line><text y="283.9199" x="39" textLength="106" lengthAdjust="spacing" font-size="13" font-family="sans-serif" fill="#000000">ACCEPTED {uuid}</text><polygon style="stroke:#181818;stroke-width:1.0;" points="286.5,313.9727,276.5,317.9727,286.5,321.9727,282.5,317.9727" fill="#181818"></polygon><line y2="317.9727" y1="317.9727" x2="500.5" x1="280.5" style="stroke:#181818;stroke-width:1.0;"></line><text y="313.2305" x="292.5" textLength="108" lengthAdjust="spacing" font-size="13" font-family="sans-serif" fill="#000000">changes on topic</text><text y="313.2305" x="404.5" textLength="72" lengthAdjust="spacing" font-style="italic" font-size="13" font-family="sans-serif" fill="#000000">mobilesync</text><polygon style="stroke:#181818;stroke-width:1.0;" points="489.5,343.2832,499.5,347.2832,489.5,351.2832,493.5,347.2832" fill="#181818"></polygon><line y2="347.2832" y1="347.2832" x2="495.5" x1="275.5" style="stroke:#181818;stroke-width:1.0;stroke-dasharray:2.0,2.0;"></line><text y="342.541" x="282.5" textLength="64" lengthAdjust="spacing" font-size="13" font-family="sans-serif" fill="#000000">publish to</text><text y="342.541" x="350.5" textLength="39" lengthAdjust="spacing" font-style="italic" font-size="13" font-family="sans-serif" fill="#000000">status</text><text y="342.541" x="393.5" textLength="32" lengthAdjust="spacing" font-size="13" font-family="sans-serif" fill="#000000">topic</text><line y2="376.5938" y1="376.5938" x2="317.5" x1="275.5" style="stroke:#181818;stroke-width:1.0;"></line><line y2="389.5938" y1="376.5938" x2="317.5" x1="317.5" style="stroke:#181818;stroke-width:1.0;"></line><line y2="389.5938" y1="389.5938" x2="317.5" x1="276.5" style="stroke:#181818;stroke-width:1.0;"></line><polygon style="stroke:#181818;stroke-width:1.0;" points="286.5,385.5938,276.5,389.5938,286.5,393.5938,282.5,389.5938" fill="#181818"></polygon><text y="371.8516" x="282.5" textLength="49" lengthAdjust="spacing" font-size="13" font-family="sans-serif" fill="#000000">process</text><polygon style="stroke:#181818;stroke-width:1.0;" points="489.5,414.9043,499.5,418.9043,489.5,422.9043,493.5,418.9043" fill="#181818"></polygon><line y2="418.9043" y1="418.9043" x2="495.5" x1="275.5" style="stroke:#181818;stroke-width:1.0;stroke-dasharray:2.0,2.0;"></line><text y="414.1621" x="282.5" textLength="64" lengthAdjust="spacing" font-size="13" font-family="sans-serif" fill="#000000">publish to</text><text y="414.1621" x="350.5" textLength="72" lengthAdjust="spacing" font-style="italic" font-size="13" font-family="sans-serif" fill="#000000">mobilesync</text><text y="414.1621" x="426.5" textLength="32" lengthAdjust="spacing" font-size="13" font-family="sans-serif" fill="#000000">topic</text><polygon style="stroke:#181818;stroke-width:1.0;" points="489.5,444.2148,499.5,448.2148,489.5,452.2148,493.5,448.2148" fill="#181818"></polygon><line y2="448.2148" y1="448.2148" x2="495.5" x1="270.5" style="stroke:#181818;stroke-width:1.0;"></line><text y="443.4727" x="277.5" textLength="64" lengthAdjust="spacing" font-size="13" font-family="sans-serif" fill="#000000">publish to</text><text y="443.4727" x="345.5" textLength="57" lengthAdjust="spacing" font-style="italic" font-size="13" font-family="sans-serif" fill="#000000">webhook</text><polygon style="stroke:#181818;stroke-width:1.0;" points="286.5,473.5254,276.5,477.5254,286.5,481.5254,282.5,477.5254" fill="#181818"></polygon><line y2="477.5254" y1="477.5254" x2="500.5" x1="280.5" style="stroke:#181818;stroke-width:1.0;"></line><text y="472.7832" x="292.5" textLength="108" lengthAdjust="spacing" font-size="13" font-family="sans-serif" fill="#000000">changes on topic</text><text y="472.7832" x="404.5" textLength="57" lengthAdjust="spacing" font-style="italic" font-size="13" font-family="sans-serif" fill="#000000">webhook</text><polygon style="stroke:#181818;stroke-width:1.0;" points="599.5,502.8359,609.5,506.8359,599.5,510.8359,603.5,506.8359" fill="#181818"></polygon><line y2="506.8359" y1="506.8359" x2="605.5" x1="275.5" style="stroke:#181818;stroke-width:1.0;"></line><text y="502.0938" x="282.5" textLength="111" lengthAdjust="spacing" font-size="13" font-family="sans-serif" fill="#000000">call webhook URL</text><polygon style="stroke:#181818;stroke-width:1.0;" points="286.5,532.1465,276.5,536.1465,286.5,540.1465,282.5,536.1465" fill="#181818"></polygon><line y2="536.1465" y1="536.1465" x2="615.5" x1="280.5" style="stroke:#181818;stroke-width:1.0;"></line><text y="531.4043" x="292.5" textLength="100" lengthAdjust="spacing" font-size="13" font-family="sans-serif" fill="#000000">webhook status</text><polygon style="stroke:#181818;stroke-width:1.0;" points="489.5,561.457,499.5,565.457,489.5,569.457,493.5,565.457" fill="#181818"></polygon><line y2="565.457" y1="565.457" x2="495.5" x1="270.5" style="stroke:#181818;stroke-width:1.0;stroke-dasharray:2.0,2.0;"></line><text y="560.7148" x="277.5" textLength="75" lengthAdjust="spacing" font-size="13" font-family="sans-serif" fill="#000000">store status</text></g></svg>