<svg zoomAndPan="magnify" width="357px" viewBox="0 0 357 523" version="1.1" style="width:357px;height:523px;background:#FFFFFF;" preserveAspectRatio="none" height="523px" xmlns:xlink="http://www.w3.org/1999/xlink" xmlns="http://www.w3.org/2000/svg"><defs></defs><g><g id="cluster_rx"><rect y="76" x="12" width="339" style="stroke:#181818;stroke-width:1.0;fill:none;" ry="2.5" rx="2.5" height="321"></rect><rect y="81" x="331" width="15" style="stroke:#181818;stroke-width:1.0;fill:none;" height="10"></rect><rect y="83" x="329" width="4" style="stroke:#181818;stroke-width:1.0;fill:none;" height="2"></rect><rect y="87" x="329" width="4" style="stroke:#181818;stroke-width:1.0;fill:none;" height="2"></rect><text y="102.5352" x="147.5" textLength="68" lengthAdjust="spacing" font-weight="bold" font-size="14" font-family="sans-serif" fill="#000000">EtendoRX</text></g><g id="elem_PG"><path style="stroke:#181818;stroke-width:0.5;" fill="#F1F1F1" d="M137,16 C137,6 177,6 177,6 C177,6 217,6 217,16 L217,41.4883 C217,51.4883 177,51.4883 177,51.4883 C177,51.4883 137,51.4883 137,41.4883 L137,16"></path><path style="stroke:#181818;stroke-width:0.5;" fill="none" d="M137,16 C137,26 177,26 177,26 C177,26 217,26 217,16"></path><text y="43.5352" x="147" textLength="60" lengthAdjust="spacing" font-size="14" font-family="sans-serif" fill="#000000">postgres</text></g><g id="elem_EDGE"><ellipse style="stroke:#181818;stroke-width:0.5;" ry="8" rx="8" fill="#F1F1F1" cy="352" cx="55"></ellipse><text y="382.5352" x="37" textLength="36" lengthAdjust="spacing" font-size="14" font-family="sans-serif" fill="#000000">EDGE</text></g><g id="elem_KF"><path style="stroke:#181818;stroke-width:0.5;" fill="#F1F1F1" d="M237.5,227 L284.5,227 C289.5,227 289.5,240.2441 289.5,240.2441 C289.5,240.2441 289.5,253.4883 284.5,253.4883 L237.5,253.4883 C232.5,253.4883 232.5,240.2441 232.5,240.2441 C232.5,240.2441 232.5,227 237.5,227"></path><path style="stroke:#181818;stroke-width:0.5;" fill="none" d="M284.5,227 C279.5,227 279.5,240.2441 279.5,240.2441 C279.5,253.4883 284.5,253.4883 284.5,253.4883"></path><text y="245.5352" x="237.5" textLength="37" lengthAdjust="spacing" font-size="14" font-family="sans-serif" fill="#000000">kafka</text></g><g id="elem_DAS"><polygon style="stroke:#181818;stroke-width:0.5;" points="143,121,153,111,211,111,211,147.4883,201,157.4883,143,157.4883,143,121" fill="#F1F1F1"></polygon><line y2="111" y1="121" x2="211" x1="201" style="stroke:#181818;stroke-width:0.5;"></line><line y2="121" y1="121" x2="201" x1="143" style="stroke:#181818;stroke-width:0.5;"></line><line y2="157.4883" y1="121" x2="201" x1="201" style="stroke:#181818;stroke-width:0.5;"></line><text y="144.5352" x="158" textLength="28" lengthAdjust="spacing" font-size="14" font-family="sans-serif" fill="#000000">DAS</text></g><g id="elem_AUTH"><polygon style="stroke:#181818;stroke-width:0.5;" points="28.5,121,38.5,111,107.5,111,107.5,147.4883,97.5,157.4883,28.5,157.4883,28.5,121" fill="#F1F1F1"></polygon><line y2="111" y1="121" x2="107.5" x1="97.5" style="stroke:#181818;stroke-width:0.5;"></line><line y2="121" y1="121" x2="97.5" x1="28.5" style="stroke:#181818;stroke-width:0.5;"></line><line y2="157.4883" y1="121" x2="97.5" x1="97.5" style="stroke:#181818;stroke-width:0.5;"></line><text y="144.5352" x="43.5" textLength="39" lengthAdjust="spacing" font-size="14" font-family="sans-serif" fill="#000000">AUTH</text></g><g id="elem_AP"><polygon style="stroke:#181818;stroke-width:0.5;" points="65,227,75,217,197,217,197,253.4883,187,263.4883,65,263.4883,65,227" fill="#F1F1F1"></polygon><line y2="217" y1="227" x2="197" x1="187" style="stroke:#181818;stroke-width:0.5;"></line><line y2="227" y1="227" x2="187" x1="65" style="stroke:#181818;stroke-width:0.5;"></line><line y2="263.4883" y1="227" x2="187" x1="187" style="stroke:#181818;stroke-width:0.5;"></line><text y="250.5352" x="80" textLength="92" lengthAdjust="spacing" font-size="14" font-family="sans-serif" fill="#000000">AsyncProcess</text></g><g id="elem_PI"><polygon style="stroke:#181818;stroke-width:0.5;" points="117,339,127,329,335,329,335,365.4883,325,375.4883,117,375.4883,117,339" fill="#F1F1F1"></polygon><line y2="329" y1="339" x2="335" x1="325" style="stroke:#181818;stroke-width:0.5;"></line><line y2="339" y1="339" x2="325" x1="117" style="stroke:#181818;stroke-width:0.5;"></line><line y2="375.4883" y1="339" x2="325" x1="325" style="stroke:#181818;stroke-width:0.5;"></line><text y="362.5352" x="132" textLength="178" lengthAdjust="spacing" font-size="14" font-family="sans-serif" fill="#000000">«Process implementation»</text></g><g id="elem_App"><ellipse style="stroke:#181818;stroke-width:0.5;" ry="8" rx="8" fill="#F1F1F1" cy="449.5" cx="55"></ellipse><path style="stroke:#181818;stroke-width:0.5;" fill="none" d="M55,457.5 L55,484.5 M42,465.5 L68,465.5 M55,484.5 L42,499.5 M55,484.5 L68,499.5"></path><text y="514.5352" x="6" textLength="98" lengthAdjust="spacing" font-size="14" font-family="sans-serif" fill="#000000">External event</text></g><g id="link_PG_DAS"><path style="stroke:#181818;stroke-width:1.0;" id="PG-backto-DAS" fill="none" d="M177,56.31 C177,73.29 177,95 177,110.98"></path><polygon style="stroke:#181818;stroke-width:1.0;" points="177,51.2,173,60.2,177,56.2,181,60.2,177,51.2" fill="#181818"></polygon></g><g id="link_AUTH_DAS"><path style="stroke:#181818;stroke-width:1.0;" id="AUTH-to-DAS" fill="none" d="M107.6,134 C117.6,134 127.61,134 137.61,134"></path><polygon style="stroke:#181818;stroke-width:1.0;" points="142.84,134,133.84,130,137.84,134,133.84,138,142.84,134" fill="#181818"></polygon></g><g id="link_AUTH_EDGE"><path style="stroke:#181818;stroke-width:1.0;" id="AUTH-backto-EDGE" fill="none" d="M59.12,162.49 C54.49,178.26 49.33,198.53 47,217 C41.03,264.4 49.75,321.81 53.46,342.81"></path><polygon style="stroke:#181818;stroke-width:1.0;" points="60.66,157.33,54.2589,164.8151,59.2337,162.1223,61.9265,167.0971,60.66,157.33" fill="#181818"></polygon></g><g id="link_AP_EDGE"><path style="stroke:#181818;stroke-width:1.0;" id="AP-backto-EDGE" fill="none" d="M112.75,267.42 C95.76,292 71.49,327.14 60.63,342.86"></path><polygon style="stroke:#181818;stroke-width:1.0;" points="115.62,263.26,107.213,268.3905,112.7777,267.3735,113.7946,272.9382,115.62,263.26" fill="#181818"></polygon></g><g id="link_EDGE_App"><path style="stroke:#181818;stroke-width:1.0;" id="EDGE-backto-App" fill="none" d="M55,366.64 C55,384.33 55,415.89 55,440.91"></path><polygon style="stroke:#181818;stroke-width:1.0;" points="55,361.2,51,370.2,55,366.2,59,370.2,55,361.2" fill="#181818"></polygon></g><g id="link_DAS_AP"><path style="stroke:#181818;stroke-width:1.0;" id="DAS-backto-AP" fill="none" d="M165.17,161.75 C157.59,178.89 147.87,200.85 140.74,216.98"></path><polygon style="stroke:#181818;stroke-width:1.0;" points="167.24,157.06,159.9333,163.664,165.212,161.6302,167.2457,166.9089,167.24,157.06" fill="#181818"></polygon></g><g id="link_AP_KF"><path style="stroke:#181818;stroke-width:1.0;" id="AP-to-KF" fill="none" d="M197.02,240 C206.95,240 216.88,240 226.81,240"></path><polygon style="stroke:#181818;stroke-width:1.0;" points="232.01,240,223.01,236,227.01,240,223.01,244,232.01,240" fill="#181818"></polygon></g><g id="link_KF_PI"><path style="stroke:#181818;stroke-width:1.0;" id="KF-backto-PI" fill="none" d="M255.51,258.24 C249.45,277.3 239.67,308.05 233.04,328.87"></path><polygon style="stroke:#181818;stroke-width:1.0;" points="257.12,253.19,250.5786,260.5527,255.6034,257.9544,258.2017,262.9793,257.12,253.19" fill="#181818"></polygon></g><g id="link_DAS_PI"><path style="stroke:#181818;stroke-width:1.0;" id="DAS-backto-PI" fill="none" d="M216.07,147.75 C246.89,160.11 287.79,182.18 307,217 C329.12,257.11 287.03,302.47 255.67,328.79"></path><polygon style="stroke:#181818;stroke-width:1.0;" points="211.21,145.85,218.1441,152.8441,215.8689,147.665,221.0481,145.3898,211.21,145.85" fill="#181818"></polygon></g></g></svg>